<?xml version="1.0" encoding="utf-8"?>
<!-- Generator: Adobe Illustrator 27.0.0, SVG Export Plug-In . SVG Version: 6.00 Build 0)  -->
<svg version="1.1" id="Слой_1" xmlns="http://www.w3.org/2000/svg" xmlns:xlink="http://www.w3.org/1999/xlink" x="0px" y="0px"
	 viewBox="0 0 71 60" style="enable-background:new 0 0 71 60;" xml:space="preserve">
<style type="text/css">
	.st0{fill:#FFFFFF;}
	.st1{fill:#FFFFFF;stroke:#000000;stroke-width:3;stroke-miterlimit:50;}
	.st2{fill:#FF68FF;stroke:#000000;stroke-width:3;stroke-miterlimit:50;}
</style>
<path class="st0" d="M53.3,59.5H17.7L0,30L17.7,0.5h35.5L71,30L53.3,59.5z M20,55.7h31L66.4,30L51,4.3H20L4.6,30L20,55.7z"/>
<path class="st1" d="M18.1,14.9h34.8c0.9,0,1.6,0.7,1.6,1.6v26.4c0,0.9-0.7,1.6-1.6,1.6H18.1c-0.9,0-1.6-0.7-1.6-1.6V16.5
	C16.5,15.6,17.2,14.9,18.1,14.9z"/>
<line class="st2" x1="16.5" y1="38.6" x2="54.5" y2="38.6"/>
<line class="st1" x1="33.1" y1="44.5" x2="30.6" y2="50.7"/>
<line class="st1" x1="38.3" y1="44.5" x2="40.8" y2="50.7"/>
<line class="st1" x1="26.6" y1="50.4" x2="44.4" y2="50.4"/>
</svg>
