<svg width="47" height="40" viewBox="0 0 47 40" fill="none" xmlns="http://www.w3.org/2000/svg">
<g clip-path="url(#clip0_181_14)">
<path fill-rule="evenodd" clip-rule="evenodd" d="M23.1717 4.44214C14.4386 4.44214 7.35626 11.3036 7.35626 19.7651C7.18227 28.2257 14.1216 35.2206 22.8537 35.3892C31.5859 35.5578 38.8069 28.8349 38.9809 20.3751C38.9853 20.1732 38.9853 19.9713 38.9809 19.7693C38.9809 11.3036 31.9021 4.44214 23.1717 4.44214ZM22.5225 25.9523H19.9524V20.9039C19.9524 19.8994 19.9118 19.2628 19.8138 18.9933C19.7237 18.728 19.5426 18.5013 19.3015 18.349C19.0259 18.1796 18.7036 18.0957 18.3768 18.1077C17.9749 18.1017 17.5793 18.2086 17.2384 18.4157C16.8895 18.6322 16.6289 18.9591 16.4991 19.3407C16.3419 19.7531 16.2642 20.3529 16.2668 21.1581V25.9497H13.7056V12.3158H16.2359V17.6054C17.0661 16.6514 18.0694 16.1705 19.2185 16.1705C19.7722 16.1619 20.3198 16.274 20.8233 16.4974C21.3002 16.713 21.6614 16.9894 21.9008 17.3256C22.1419 17.6627 22.3088 18.0444 22.3927 18.4465C22.481 18.8538 22.5225 19.4878 22.5225 20.3478V25.9523ZM32.6051 25.9523H30.0712V20.9039C30.0712 19.8994 30.0226 19.2628 29.9246 18.9933C29.8327 18.728 29.6508 18.5004 29.4079 18.349C29.1315 18.1796 28.8091 18.0948 28.4823 18.1077C28.0796 18.1017 27.6839 18.2086 27.343 18.4157C26.9942 18.6348 26.7318 18.9599 26.5967 19.3407C26.4395 19.7557 26.3512 20.3674 26.3512 21.1692V25.9523H23.7811V12.3158H26.3512V17.6054C27.1814 16.6514 28.1768 16.1705 29.3258 16.1705C29.8796 16.1628 30.4271 16.274 30.9306 16.4974C31.4048 16.713 31.7643 16.9894 32.0036 17.3256C32.2403 17.6636 32.4029 18.0452 32.4815 18.4465C32.5698 18.8538 32.598 19.4878 32.598 20.3478L32.6051 25.9523Z" fill="#white"/>
</g>
<path d="M35.218 39.1992H11.7331L0 20.092L11.7331 0.984863H35.218L46.9511 20.092L35.218 39.1992ZM13.2531 36.7217H33.698L43.9112 20.092L33.698 3.46235H13.2531L3.03987 20.092L13.2531 36.7217Z" fill="white"/>
<defs>
<clipPath id="clip0_181_14">
<rect width="31.7951" height="31.06" fill="white" transform="translate(7.27411 4.36682)"/>
</clipPath>
</defs>
</svg>
