<svg width="71" height="60" viewBox="0 0 71 60" fill="white" xmlns="http://www.w3.org/2000/svg">
<path d="M53.257 59.0367H17.743L0 29.5184L17.743 0H53.257L71 29.5184L53.257 59.0367ZM20.0415 55.2093H50.9585L66.4031 29.5184L50.9585 3.82743H20.0415L4.59692 29.5184L20.0415 55.2093Z" fill="white"/>
<g clip-path="url(#clip0_106_6577)">
<path fill-rule="evenodd" clip-rule="evenodd" d="M35 6.34167C21.1875 6.34167 10 16.8701 10 29.8689C10 40.2797 17.1562 49.073 27.0937 52.1904C28.3437 52.3962 28.8125 51.6904 28.8125 51.0728C28.8125 50.514 28.7813 48.6613 28.7813 46.6909C22.5 47.779 20.875 45.2498 20.375 43.9264C20.0937 43.25 18.875 41.162 17.8125 40.6032C16.9375 40.1621 15.6875 39.0739 17.7813 39.0445C19.75 39.0151 21.1563 40.7502 21.625 41.4561C23.875 45.0146 27.4688 44.0146 28.9063 43.3971C29.125 41.8678 29.7812 40.8385 30.5 40.2503C24.9375 39.6621 19.125 37.6329 19.125 28.6337C19.125 26.0751 20.0938 23.9577 21.6875 22.3108C21.4375 21.7226 20.5625 19.3111 21.9375 16.0761C21.9375 16.0761 24.0313 15.4585 28.8125 18.4876C30.8125 17.9582 32.9375 17.6936 35.0625 17.6936C37.1875 17.6936 39.3125 17.9582 41.3125 18.4876C46.0938 15.4291 48.1875 16.0761 48.1875 16.0761C49.5625 19.3111 48.6875 21.7226 48.4375 22.3108C50.0313 23.9577 51 26.0457 51 28.6337C51 37.6623 45.1563 39.6621 39.5938 40.2503C40.5 40.9855 41.2813 42.3972 41.2813 44.6028C41.2813 47.7496 41.25 50.2788 41.25 51.0728C41.25 51.6904 41.7188 52.4256 42.9688 52.1904C52.8438 49.073 60 40.2503 60 29.8689C60 16.8701 48.8125 6.34167 35 6.34167Z" fill="white"/>
</g>
<defs>
<clipPath id="clip0_106_6577">
<rect width="50" height="47.0545" fill="white" transform="translate(10 6.34167)"/>
</clipPath>
</defs>
</svg>
