<?xml version="1.0" encoding="utf-8"?>
<!-- Generator: Adobe Illustrator 27.0.0, SVG Export Plug-In . SVG Version: 6.00 Build 0)  -->
<svg version="1.1" id="Слой_1" xmlns="http://www.w3.org/2000/svg" xmlns:xlink="http://www.w3.org/1999/xlink" x="0px" y="0px"
	 viewBox="0 0 71 60" style="enable-background:new 0 0 71 60;" xml:space="preserve">
<style type="text/css">
	.st0{fill:#e75d03f2;}
	.st1{fill:none;stroke:#e75d03f2;stroke-width:3;stroke-linecap:round;stroke-linejoin:round;stroke-miterlimit:133.3333;}
</style>
<path class="st0" d="M53.3,59.5H17.7L0,30L17.7,0.5h35.5L71,30L53.3,59.5z M20,55.7h31L66.4,30L51,4.3H20L4.6,30L20,55.7z"/>
<path class="st1" d="M31.2,10.5v3c0,1.2,0,1.8,0.2,2.3c0.2,0.4,0.5,0.7,0.9,0.9c0.5,0.2,1.1,0.2,2.3,0.2h1.7c1.2,0,1.8,0,2.3-0.2
	c0.4-0.2,0.7-0.5,0.9-0.9c0.2-0.5,0.2-1.1,0.2-2.3v-3 M29.4,49.5h12.1c2.4,0,3.6,0,4.6-0.5c0.8-0.4,1.5-1.1,1.9-1.9
	c0.5-0.9,0.5-2.1,0.5-4.6V17.4c0-2.4,0-3.6-0.5-4.6c-0.4-0.8-1.1-1.5-1.9-1.9c-0.9-0.5-2.1-0.5-4.6-0.5H29.4c-2.4,0-3.6,0-4.6,0.5
	c-0.8,0.4-1.5,1.1-1.9,1.9c-0.5,0.9-0.5,2.1-0.5,4.6v25.1c0,2.4,0,3.6,0.5,4.6c0.4,0.8,1.1,1.5,1.9,1.9C25.8,49.5,27,49.5,29.4,49.5
	z"/>
</svg>
