<?xml version="1.0" encoding="utf-8"?>
<!-- Generator: Adobe Illustrator 27.0.0, SVG Export Plug-In . SVG Version: 6.00 Build 0)  -->
<svg fill="white" version="1.1" id="Слой_1" xmlns="http://www.w3.org/2000/svg" xmlns:xlink="http://www.w3.org/1999/xlink" x="0px" y="0px"
	 viewBox="0 0 71 60" style="enable-background:new 0 0 71 60;" xml:space="preserve">
<path d="M53.3,59H17.7L0,29.5L17.7,0h35.5L71,29.5L53.3,59z M20,55.2h31l15.4-25.7L51,3.8H20L4.6,29.5L20,55.2z"/>
<g>
	<path d="M35.5,14.5c-9.6,0-18.3,5.3-24.8,13.8c-0.5,0.7-0.5,1.7,0,2.4c6.4,8.6,15.2,13.8,24.8,13.8s18.3-5.3,24.8-13.8
		c0.5-0.7,0.5-1.7,0-2.4C53.8,19.8,45.1,14.5,35.5,14.5z M36.2,40.1c-6.4,0.4-11.7-4.9-11.3-11.3c0.3-5.3,4.6-9.5,9.9-9.9
		c6.4-0.4,11.7,4.9,11.3,11.3C45.7,35.5,41.5,39.7,36.2,40.1z M35.9,35.2c-3.4,0.2-6.3-2.6-6.1-6.1c0.2-2.8,2.5-5.1,5.3-5.3
		c3.4-0.2,6.3,2.6,6.1,6.1C41,32.7,38.7,35,35.9,35.2z"/>
</g>
</svg>
