<?xml version="1.0" encoding="utf-8"?>
<!-- Generator: Adobe Illustrator 27.0.0, SVG Export Plug-In . SVG Version: 6.00 Build 0)  -->
<svg version="1.1" id="Слой_1" xmlns="http://www.w3.org/2000/svg" xmlns:xlink="http://www.w3.org/1999/xlink" x="0px" y="0px"
	 viewBox="0 0 71 60" style="enable-background:new 0 0 71 60;" xml:space="preserve">
<style type="text/css">
	.st0{fill:#E75D03;}
</style>
<g>
	<path class="st0" d="M35.5,8.9c-13.2,0-25.1,7.3-34,18.9c-0.7,1-0.7,2.3,0,3.3c8.8,11.8,20.8,18.9,34,18.9s25.1-7.3,34-18.9
		c0.7-1,0.7-2.3,0-3.3C60.6,16.2,48.7,8.9,35.5,8.9z M36.5,44c-8.8,0.5-16-6.7-15.5-15.5c0.4-7.3,6.3-13,13.6-13.6
		c8.8-0.5,16,6.7,15.5,15.5C49.5,37.7,43.7,43.5,36.5,44z M36,37.3c-4.7,0.3-8.6-3.6-8.4-8.4c0.3-3.8,3.4-7,7.3-7.3
		c4.7-0.3,8.6,3.6,8.4,8.4C43,33.9,39.9,37,36,37.3z"/>
</g>
</svg>
